# xmcd
#
# Track frame offsets: 
#        150
#        20682
#        46395
#        73395
#        98402
#        127302
#        152882
#        176840
#        198002
#        224870
#        254882
#        286740
#        304032
#
# Disc length: 4403 seconds
#
# Revision: 0
# Processed by: cddbd v1.5.2PL0 Copyright (c) Steve Scherf et al.
# Submitted via: ExactAudioCopy v1.0b3
#
DISCID=ce11310d
DTITLE=Duy Khanh - Tac Pham va Tieng Hat
DYEAR=1988
DGENRE=
TTITLE0=Duy Khanh, Huong Lan, Mai Huong - Di tu ruong dong bao la
TTITLE1=Noi niem rieng
TTITLE2=Hue dep Hue tho
TTITLE3=Duy Khanh, Huong Lan - Ngay xua len 5 len 3
TTITLE4=Thu ve em gai thanh do
TTITLE5=Duy Khanh, Anh Thy - Anh ve mot chieu mua
TTITLE6=Vung que tuong lai
TTITLE7=Duy Khanh, Huong Lan - Sao khong thay anh ve
TTITLE8=Biet tra loi sao
TTITLE9=Mua bay trong doi
TTITLE10=Nguoi anh gioi tuyen
TTITLE11=Duy Khanh, Mai Huong - Mung anh chien si
TTITLE12=Gia tu Da Lat
EXTD=
EXTT0=
EXTT1=
EXTT2=
EXTT3=
EXTT4=
EXTT5=
EXTT6=
EXTT7=
EXTT8=
EXTT9=
EXTT10=
EXTT11=
EXTT12=
PLAYORDER=
